<svg width="640" height="640" viewBox="0 0 640 640" fill="none" xmlns="http://www.w3.org/2000/svg">
<g id="SVGRepo_bgCarrier" stroke-width="0"></g>
<g id="SVGRepo_tracerCarrier" stroke-linecap="round" stroke-linejoin="round"></g>
<g id="SVGRepo_iconCarrier">
<path d="M320 320m-256 0a256 256 0 1 0 512 0a256 256 0 1 0 -512 0" fill="#fff"></path>
<path d="M320 320m-192 0a192 192 0 1 0 384 0a192 192 0 1 0 -384 0" fill="#fff" stroke="#222" stroke-width="16"></path>
<rect x="120" y="120" width="24" height="240" rx="12" fill="#222"></rect>
<rect x="496" y="120" width="24" height="240" rx="12" fill="#222"></rect>
<rect x="496" y="360" width="24" height="80" rx="12" fill="#222"></rect>
<rect x="120" y="360" width="24" height="80" rx="12" fill="#222"></rect>
<ellipse cx="320" cy="360" rx="64" ry="48" fill="#222"></ellipse>
<ellipse cx="320" cy="320" rx="48" ry="40" fill="#fff" stroke="#222" stroke-width="8"></ellipse>
<ellipse cx="320" cy="320" rx="24" ry="20" fill="#222"></ellipse>
<rect x="312" y="200" width="16" height="40" rx="8" fill="#222"></rect>
<rect x="312" y="160" width="16" height="24" rx="8" fill="#222"></rect>
</g>
</svg> 